<?xml version="1.0" standalone="no"?>
<!DOCTYPE svg PUBLIC "-//W3C//DTD SVG 20010904//EN"
 "http://www.w3.org/TR/2001/REC-SVG-20010904/DTD/svg10.dtd">
<svg version="1.0" xmlns="http://www.w3.org/2000/svg"
 width="512.000000pt" height="512.000000pt" viewBox="0 0 512.000000 512.000000"
 preserveAspectRatio="xMidYMid meet">
<metadata>
Created by potrace 1.11, written by Peter Selinger 2001-2013
</metadata>
<g transform="translate(0.000000,512.000000) scale(0.100000,-0.100000)"
fill="#000000" stroke="none">
<path d="M1710 5113 c-93 -38 -133 -150 -80 -225 31 -42 28 -48 -32 -73 -105
-43 -232 -108 -348 -179 -63 -38 -117 -72 -120 -76 -3 -3 -32 -25 -65 -49
-150 -111 -333 -286 -452 -434 -65 -80 -190 -260 -206 -297 -4 -8 -17 -31 -28
-50 -96 -158 -215 -458 -254 -637 -3 -13 -7 -33 -10 -45 -2 -12 -7 -40 -11
-62 -3 -22 -7 -43 -9 -46 -2 -4 -7 -29 -10 -56 -3 -27 -8 -60 -10 -74 -11 -59
-17 -175 -17 -306 0 -186 10 -283 48 -491 8 -46 12 -88 8 -95 -4 -6 -3 -8 3
-5 7 4 14 -8 18 -31 3 -20 20 -80 37 -132 147 -455 414 -855 768 -1152 120
-100 112 -94 195 -152 178 -125 396 -235 620 -313 109 -39 163 -53 340 -89 18
-4 82 -14 185 -30 19 -2 127 -6 240 -8 228 -4 371 8 560 49 41 9 86 19 100 21
64 13 327 107 425 154 96 44 260 134 329 180 52 34 82 55 94 67 8 7 23 18 34
24 11 6 29 19 41 29 12 10 46 39 76 64 30 25 59 43 64 39 6 -3 7 -1 4 4 -8 12
140 160 155 155 5 -1 7 1 4 6 -3 5 9 25 27 44 61 67 157 192 201 260 10 15 23
25 29 21 6 -3 7 -1 3 5 -3 6 12 41 35 79 166 270 282 592 335 928 32 202 35
483 9 675 -3 19 -7 53 -10 75 -9 68 -56 275 -80 352 -84 264 -198 495 -353
713 -96 135 -144 192 -267 316 -146 147 -232 217 -402 330 -51 34 -89 65 -85
69 4 5 2 5 -5 1 -6 -3 -35 8 -64 25 -185 109 -472 215 -711 264 -202 41 -332
52 -548 49 -200 -3 -257 -8 -445 -45 -55 -10 -115 -23 -132 -28 l-33 -10 0 41
c0 52 -25 103 -63 130 -30 21 -108 33 -137 21z"/>
</g>
</svg>
